<svg width="35" height="30" viewBox="0 0 35 30" fill="none" xmlns="http://www.w3.org/2000/svg">
<path d="M28.427 20.5277C27.7408 19.9044 26.43 19.0882 25.048 17.8262L24.463 19.2467C24.3636 19.4893 24.0856 19.6045 23.844 19.5045C23.8189 19.4943 23.7959 19.4818 23.7736 19.468C23.5802 19.3479 23.4958 19.1028 23.5855 18.8856L24.1932 17.4091C24.2597 17.2476 24.2149 17.0157 24.0959 16.8886C24.029 16.8163 23.9621 16.7433 23.8948 16.6689C23.7778 16.5394 23.6307 16.5633 23.5645 16.7244L23.2576 17.4689C23.1582 17.7114 22.8805 17.8263 22.6383 17.7271C22.6135 17.7166 22.5899 17.705 22.5677 17.6911C22.3747 17.5712 22.2903 17.3262 22.3798 17.1083L22.8849 15.8814C22.9518 15.7194 22.9209 15.4757 22.8194 15.3329C22.7478 15.2335 22.6774 15.1318 22.6078 15.0281C22.51 14.8834 22.3801 14.8951 22.314 15.0569L22.0529 15.691C21.9532 15.9339 21.6756 16.0494 21.4336 15.9492C21.4088 15.9386 21.3853 15.9277 21.3631 15.9139C21.1702 15.794 21.0863 15.5481 21.1755 15.3306L21.713 14.0254C21.78 13.8642 21.7678 13.6078 21.6894 13.4522C21.6158 13.3033 21.5434 13.1508 21.4729 12.996C21.4006 12.8375 21.2911 12.8377 21.2246 12.9992L20.8479 13.9135C20.7485 14.156 20.4712 14.2711 20.2291 14.1708C20.2038 14.1611 20.1805 14.1491 20.1587 14.1355C19.9653 14.0154 19.8812 13.7699 19.9711 13.5523L20.9052 11.2842C20.8822 11.1425 20.8639 11.0067 20.854 10.8925C20.7675 9.92594 20.5237 8.10871 19.8854 7.31119C19.2169 6.47681 18.1467 6.66791 17.6431 7.14896C17.3906 7.39115 17.2228 7.94977 17.1393 8.28917C17.0876 8.49973 17.0576 8.74617 17.0977 8.98966C17.154 9.33434 17.0811 9.61691 16.7358 9.66738C15.9262 9.78868 14.4508 9.92843 13.054 9.64321C10.3008 9.08082 10.6181 7.69559 10.6181 7.69559C10.6181 7.69559 11.1199 5.78317 10.6859 4.71233C10.5551 4.38838 10.0975 4.0171 9.76692 3.9059C9.64914 3.86713 9.53124 3.84704 9.41391 3.83569C8.94849 4.97921 8.17427 7.95581 10.5499 11.7009C13.6302 16.5604 22.1307 22.4297 23.7347 23.5114C23.8797 23.6094 23.8658 23.6358 23.7044 23.57C22.5226 23.0856 17.9956 21.124 14.1865 18.0563C9.5057 14.2843 5.74785 9.9274 7.0789 5.06167C6.99786 5.13569 6.92168 5.20485 6.85368 5.26286C6.27115 5.76122 5.83178 6.06118 4.9554 7.38709C4.76325 7.67885 4.36276 8.05128 4.08554 8.26423C3.75391 8.51812 3.31631 8.92609 2.92238 9.52117C2.53013 10.1136 2.21034 10.6292 1.99241 10.9906C1.81202 11.2897 1.74768 11.8101 1.90973 12.1196C2.02486 12.3415 2.18786 12.596 2.41105 12.8296C2.65229 13.0827 3.01529 13.4925 3.24245 13.7585C3.34048 13.8738 3.46234 13.9954 3.61058 14.1104C3.88698 14.3243 4.25699 14.4994 4.38223 14.5874C4.50769 14.6751 4.57072 14.8078 4.52309 14.8844C4.47546 14.9611 4.59208 15.1193 4.78376 15.2384C4.97544 15.3575 5.23589 15.4076 5.36498 15.3514C5.49442 15.2947 5.67965 15.2988 5.77849 15.3602C5.87738 15.4217 5.90793 15.5523 5.84673 15.6507C5.78532 15.7496 5.88054 15.9199 6.06001 16.0314C6.23948 16.1429 6.48741 16.1792 6.61456 16.1115C6.74178 16.0457 6.92058 16.0378 7.01337 16.0954C7.1057 16.1528 7.18286 16.3191 7.18559 16.4664C7.18852 16.6142 7.321 16.8149 7.48175 16.9148C7.6425 17.0147 7.87294 17.0461 7.99588 16.9861C8.11922 16.9256 8.26425 17.0157 8.31998 17.1875C8.37618 17.3594 8.5973 17.6079 8.81335 17.7422C9.0294 17.8764 9.27049 17.9363 9.35124 17.8754C9.43181 17.8137 9.58779 17.8201 9.6993 17.8894C9.81035 17.9584 9.91076 18.1107 9.92227 18.2302C9.93431 18.3488 10.1312 18.512 10.3615 18.5961C10.5924 18.6792 10.8807 18.6844 11.0055 18.6081C11.1303 18.5316 11.2584 18.5828 11.2915 18.7229C11.3232 18.8634 11.4995 19.1052 11.6852 19.2622C11.8695 19.4202 12.1371 19.5376 12.2823 19.5245C12.4272 19.5119 12.6153 19.5667 12.7027 19.6456C12.7896 19.7262 12.8141 19.8658 12.7564 19.9585C12.6985 20.0518 12.8227 20.2328 13.0326 20.3632C13.243 20.4939 13.5043 20.5874 13.6174 20.5714C13.7299 20.5556 13.8969 20.6104 13.9902 20.6944C14.0839 20.7779 14.1286 20.8963 14.0902 20.9581C14.0518 21.0199 14.1259 21.1348 14.2557 21.2155C14.3859 21.2964 14.6012 21.3746 14.7367 21.3907C14.8726 21.4062 15.0367 21.4666 15.1029 21.5252C15.1699 21.5837 15.1894 21.6863 15.1469 21.7547C15.1047 21.8226 15.311 22.0269 15.6077 22.2112L15.6525 22.2391C15.9496 22.4236 16.2396 22.4922 16.3008 22.3937C16.3622 22.2949 16.4974 22.2678 16.602 22.3328C16.707 22.398 16.7422 22.5317 16.6811 22.6301C16.6196 22.729 16.7802 22.9398 17.0398 23.1011C17.2994 23.2624 17.6341 23.3943 17.7878 23.3957C17.9414 23.3963 18.1069 23.4991 18.1571 23.6252C18.2073 23.7504 18.4842 23.9985 18.7747 24.1791C19.0653 24.3596 19.3946 24.467 19.51 24.4192C19.6255 24.3713 19.8202 24.3602 19.9442 24.3938C20.0679 24.429 20.1658 24.5513 20.1614 24.6682C20.1572 24.7857 20.4183 24.9805 20.745 25.1057L20.843 25.1424C21.1694 25.2661 21.5239 25.2902 21.6343 25.1951C21.7442 25.101 21.895 25.0487 21.9706 25.0786C22.0461 25.1087 22.1209 25.2458 22.1376 25.3841C22.154 25.5229 22.3562 25.6901 22.5884 25.7566C22.8205 25.8241 23.1214 25.7538 23.2598 25.6002C23.3982 25.4465 23.6374 25.3519 23.7938 25.3898C23.9507 25.4269 24.015 25.5575 23.9382 25.6812C23.8613 25.8049 24.0773 25.9596 24.4195 26.0279C24.7652 26.0954 25.1053 26.0502 25.1822 25.9265C25.259 25.8028 25.4152 25.7187 25.5307 25.7397C25.6465 25.7603 25.7575 25.8499 25.7789 25.9398C25.7996 26.0299 25.9897 26.0932 26.2037 26.08C26.4172 26.0678 26.6606 25.989 26.7466 25.9059C26.8329 25.8225 27.188 25.7611 27.5309 25.6942C28.2391 25.5552 29.3548 25.1103 29.8333 23.6833C30.5604 21.5133 29.8842 21.8526 28.427 20.5277Z" fill="#A1A1A1"/>
</svg>
